<svg version="1.2" baseProfile="tiny" xmlns="http://www.w3.org/2000/svg" width="356" height="259.699" viewBox="0 0 356 259.699" xml:space="preserve"><path fill="#FFF" d="M0 0h356v259.699H0z"/><text transform="translate(268.365 140.492)" fill="red" font-family="'TrajanPro-Regular'" font-size="10">A</text><text transform="translate(228.846 140.492)" fill="red" font-family="'TrajanPro-Regular'" font-size="10">A</text><text transform="translate(307.885 140.492)" fill="red" font-family="'TrajanPro-Regular'" font-size="10">A</text><text transform="translate(228.846 179.492)" fill="red" font-family="'TrajanPro-Regular'" font-size="10">A</text><text transform="translate(307.885 179.492)" fill="red" font-family="'TrajanPro-Regular'" font-size="10">A</text><text transform="translate(228.846 100.826)" fill="red" font-family="'TrajanPro-Regular'" font-size="10">A</text><text transform="translate(307.885 100.826)" fill="red" font-family="'TrajanPro-Regular'" font-size="10">A</text><text transform="translate(268.365 100.826)" fill="red" font-family="'TrajanPro-Regular'" font-size="10">A</text><text transform="translate(268.365 179.492)" fill="red" font-family="'TrajanPro-Regular'" font-size="10">A</text><text transform="translate(248.606 140.492)" font-family="'TrajanPro-Regular'" font-size="10">B</text><text transform="translate(248.606 159.826)" font-family="'TrajanPro-Regular'" font-size="10">B</text><text transform="translate(268.365 159.826)" font-family="'TrajanPro-Regular'" font-size="10">B</text><text transform="translate(248.606 121.236)" font-family="'TrajanPro-Regular'" font-size="10">B</text><text transform="translate(288.125 140.492)" font-family="'TrajanPro-Regular'" font-size="10">B</text><text transform="translate(288.125 159.826)" font-family="'TrajanPro-Regular'" font-size="10">B</text><text transform="translate(288.125 121.236)" font-family="'TrajanPro-Regular'" font-size="10">B</text><text transform="translate(268.365 121.236)" font-family="'TrajanPro-Regular'" font-size="10">B</text><circle cx="206.961" cy="70.658" r="2.126"/><circle fill="red" cx="226.72" cy="90.389" r="2.126"/><circle cx="246.48" cy="110.119" r="2.126"/><circle fill="red" cx="266.24" cy="129.85" r="2.126"/><circle cx="286" cy="149.581" r="2.126"/><circle fill="red" cx="305.76" cy="169.311" r="2.126"/><circle cx="325.519" cy="189.042" r="2.126"/><circle cx="206.961" cy="189.042" r="2.126"/><circle cx="226.72" cy="70.658" r="2.126"/><circle cx="246.48" cy="90.389" r="2.126"/><circle cx="266.24" cy="110.119" r="2.126"/><circle cx="286" cy="129.85" r="2.126"/><circle cx="305.76" cy="149.581" r="2.126"/><circle cx="325.519" cy="169.31" r="2.126"/><circle cx="206.961" cy="169.311" r="2.126"/><circle cx="226.72" cy="189.042" r="2.126"/><circle cx="246.48" cy="70.658" r="2.126"/><circle fill="red" cx="266.24" cy="90.389" r="2.126"/><circle cx="286" cy="110.119" r="2.126"/><circle fill="red" cx="305.76" cy="129.85" r="2.126"/><circle cx="325.519" cy="149.581" r="2.126"/><circle cx="206.961" cy="149.581" r="2.126"/><circle fill="red" cx="226.72" cy="169.311" r="2.126"/><circle cx="246.48" cy="189.042" r="2.126"/><circle cx="266.24" cy="70.658" r="2.126"/><circle cx="286" cy="90.389" r="2.126"/><circle cx="305.76" cy="110.119" r="2.126"/><circle cx="325.519" cy="129.849" r="2.126"/><circle cx="206.961" cy="129.85" r="2.126"/><circle cx="226.72" cy="149.581" r="2.126"/><circle cx="246.48" cy="169.311" r="2.126"/><circle cx="266.24" cy="189.042" r="2.126"/><circle cx="286" cy="70.658" r="2.126"/><circle fill="red" cx="305.76" cy="90.389" r="2.126"/><circle cx="325.519" cy="110.119" r="2.126"/><circle cx="206.961" cy="110.119" r="2.126"/><circle fill="red" cx="226.72" cy="129.85" r="2.126"/><circle cx="246.48" cy="149.581" r="2.126"/><circle fill="red" cx="266.24" cy="169.311" r="2.126"/><circle cx="286" cy="189.042" r="2.126"/><circle cx="305.76" cy="70.658" r="2.126"/><circle cx="325.519" cy="90.388" r="2.126"/><circle cx="206.961" cy="90.389" r="2.126"/><circle cx="226.72" cy="110.119" r="2.126"/><circle cx="246.48" cy="129.85" r="2.126"/><circle cx="266.24" cy="149.581" r="2.126"/><circle cx="286" cy="169.311" r="2.126"/><circle cx="305.76" cy="189.042" r="2.126"/><circle cx="325.519" cy="70.658" r="2.126"/><text transform="translate(22.941 200.203)" fill="red" font-family="'TrajanPro-Regular'" font-size="10.672">A</text><text transform="translate(45.809 186.09)" font-family="'TrajanPro-Regular'" font-size="7.623">45ยบ</text><text transform="translate(139.95 90.636)" font-family="'TrajanPro-Regular'" font-size="7.623">45ยบ</text><text transform="translate(155.197 200.203)" font-family="'TrajanPro-Regular'" font-size="10.672">B</text><text transform="translate(155.197 65.66)" font-family="'TrajanPro-Regular'" font-size="10.672">C</text><path fill="none" stroke="#000" stroke-miterlimit="10" d="M143.382 188.792V178.71h10.081"/><path fill="none" stroke="#000" stroke-miterlimit="10" d="M153.463 69.947 34.619 188.791h118.844z"/><circle fill="#ED2424" cx="34.618" cy="188.792" r="3.543"/></svg>