<?xml version="1.0" encoding="utf-8"?>
<!-- Generator: Adobe Illustrator 17.0.0, SVG Export Plug-In . SVG Version: 6.00 Build 0)  -->
<svg version="1.2" baseProfile="tiny" id="Layer_1" xmlns="http://www.w3.org/2000/svg" xmlns:xlink="http://www.w3.org/1999/xlink"
	 x="0px" y="0px" width="100px" height="100px" viewBox="0 0 100 100" xml:space="preserve">
<g>
	<path d="M99,28.816l-31.403-0.01l-6.477,6.477c0.138,0.138-0.01,0.01-0.01,0.01l-0.395-0.395c-2.65-2.517-5.918-4.389-9.557-5.359
		c-1.83-0.488-3.751-0.752-5.735-0.752H23.212C10.945,28.788,1,38.733,1,51c0,12.267,9.945,22.212,22.212,22.212h22.212
		c1.984,0,3.905-0.264,5.735-0.752c3.637-0.969,6.904-2.84,9.554-5.355c0.136-0.13,0.275-0.257,0.408-0.389L99,28.816z"/>
	<polygon points="64.424,70.02 67.588,73.184 98.986,73.169 80.131,54.314 	"/>
</g>
</svg>
