<?xml version="1.0" encoding="utf-8"?>
<!-- Generator: Adobe Illustrator 17.0.0, SVG Export Plug-In . SVG Version: 6.00 Build 0)  -->
<svg version="1.2" baseProfile="tiny" id="Layer_1" xmlns="http://www.w3.org/2000/svg" xmlns:xlink="http://www.w3.org/1999/xlink"
	 x="0px" y="0px" width="100px" height="100px" viewBox="0 0 100 100" xml:space="preserve">
<g>
	<g>
		<polygon points="31.61,21.717 34.676,19.947 34.676,5.808 31.61,4.038 		"/>
		<polygon points="46.921,12.877 43.874,11.118 43.874,14.636 		"/>
		<polygon points="40.808,16.406 40.808,9.348 37.742,7.578 37.742,18.176 		"/>
	</g>
	<g>
		<polygon points="16.311,51.743 4.066,58.813 1,57.042 16.311,48.203 		"/>
		<polygon points="13.265,64.124 16.311,62.365 16.311,65.882 		"/>
		<polygon points="10.198,62.353 7.132,60.583 16.31,55.284 16.311,58.824 		"/>
	</g>
	<polygon points="80.591,14.632 77.545,12.873 77.552,65.773 31.62,92.313 34.666,94.071 80.596,67.55 	"/>
	<polygon points="74.515,11.081 71.468,9.322 71.476,62.222 25.544,88.761 28.59,90.52 74.519,63.999 	"/>
	<polygon points="68.318,7.568 65.272,5.809 65.28,58.708 19.348,85.248 22.394,87.006 68.323,60.486 	"/>
	<polygon points="49.988,14.632 46.942,12.873 46.95,30.557 31.61,39.372 31.621,57.043 16.311,65.895 19.356,67.654 34.665,58.82 
		34.691,41.138 49.996,32.316 	"/>
	<polygon points="56.1,18.192 53.054,16.433 53.062,34.116 37.722,42.931 37.733,60.602 22.423,69.455 25.468,71.213 40.777,62.379 
		40.803,44.697 56.108,35.875 	"/>
	<polygon points="62.254,21.727 59.207,19.968 59.215,37.652 43.875,46.467 43.887,64.137 28.576,72.99 31.622,74.749 46.93,65.915 
		46.957,48.233 62.261,39.41 	"/>
	<polygon points="74.486,74.745 74.482,81.822 59.171,90.675 62.217,92.433 77.525,83.6 77.552,72.975 	"/>
	<polygon points="53.041,87.132 56.087,88.89 71.396,80.056 71.396,76.494 	"/>
	<polygon points="83.679,55.27 86.725,53.511 86.745,35.843 83.679,34.073 	"/>
	<polygon points="83.68,62.351 92.858,57.047 92.858,39.379 89.812,37.609 89.812,55.392 83.679,58.811 	"/>
	<polygon points="83.679,65.892 83.684,69.434 98.98,60.592 99,42.924 95.934,41.154 95.934,58.814 	"/>
	<polygon points="80.618,71.204 80.614,85.351 65.304,94.204 68.349,95.962 83.658,87.129 83.684,69.434 	"/>
</g>
</svg>
