<?xml version="1.0" encoding="utf-8"?>
<!-- Generator: Adobe Illustrator 17.0.0, SVG Export Plug-In . SVG Version: 6.00 Build 0)  -->
<svg version="1.2" baseProfile="tiny" id="Layer_1" xmlns="http://www.w3.org/2000/svg" xmlns:xlink="http://www.w3.org/1999/xlink"
	 x="0px" y="0px" width="100px" height="100px" viewBox="0 0 100 100" xml:space="preserve">
<g>
	<g>
		<path d="M9.617,22.426c1.453,0,2.821,0.361,4.021,0.996v-9.613h4.596v17.234c0,4.759-3.858,8.617-8.617,8.617
			C4.858,39.66,1,35.802,1,31.043S4.858,22.426,9.617,22.426z M9.617,35.064c2.217,0,4.021-1.804,4.021-4.021
			s-1.804-4.021-4.021-4.021c-2.217,0-4.021,1.804-4.021,4.021S7.399,35.064,9.617,35.064z"/>
		<path d="M19.669,22.426h4.596V39.66h-4.596V22.426z"/>
		<path d="M34.375,39.66c-4.759,0-8.617-3.858-8.617-8.617s3.858-8.617,8.617-8.617c4.759,0,8.617,3.858,8.617,8.617h-4.596
			c0-2.217-1.804-4.021-4.021-4.021c-2.217,0-4.021,1.804-4.021,4.021s1.804,4.021,4.021,4.021V39.66z"/>
		<path d="M38.396,50h4.596v8.617h-8.617c-4.759,0-8.617-3.858-8.617-8.617s3.858-8.617,8.617-8.617v4.596
			c-2.217,0-4.021,1.804-4.021,4.021s1.804,4.021,4.021,4.021C36.592,54.021,38.396,52.217,38.396,50z"/>
		<path d="M61.719,50v8.617h-8.617c-4.759,0-8.617-3.858-8.617-8.617h4.596c0,2.217,1.804,4.021,4.021,4.021
			c2.217,0,4.021-1.804,4.021-4.021H61.719z"/>
		<path d="M80.273,50c0,4.759-3.858,8.617-8.617,8.617c-4.759,0-8.617-3.858-8.617-8.617V32.766h4.596v8.617h4.021v4.596
			c-2.217,0-4.021,1.804-4.021,4.021s1.804,4.021,4.021,4.021c2.217,0,4.021-1.804,4.021-4.021H80.273z"/>
		<path d="M90.383,58.617c-4.759,0-8.617-3.858-8.617-8.617s3.858-8.617,8.617-8.617C95.142,41.383,99,45.241,99,50h-4.596
			c0-2.217-1.804-4.021-4.021-4.021c-2.217,0-4.021,1.804-4.021,4.021s1.804,4.021,4.021,4.021V58.617z"/>
		<path d="M34.318,64.936c-2.217,0-4.021,1.804-4.021,4.021c0,2.217,1.804,4.021,4.021,4.021v4.596h-4.021v8.617h-4.596V68.957
			c0-4.759,3.858-8.617,8.617-8.617c4.759,0,8.617,3.858,8.617,8.617h-4.596C38.339,66.74,36.535,64.936,34.318,64.936z"/>
		<path d="M61.662,68.957c0,4.759-3.858,8.617-8.617,8.617c-4.759,0-8.617-3.858-8.617-8.617c0-4.759,3.858-8.617,8.617-8.617
			C57.804,60.34,61.662,64.198,61.662,68.957z M49.023,68.957c0,2.217,1.804,4.021,4.021,4.021c2.217,0,4.021-1.804,4.021-4.021
			c0-2.217-1.804-4.021-4.021-4.021C50.827,64.936,49.023,66.74,49.023,68.957z"/>
		<path d="M67.693,68.957h-4.596c0-4.759,3.858-8.617,8.617-8.617c4.759,0,8.617,3.858,8.617,8.617h-4.596
			c0-2.217-1.804-4.021-4.021-4.021C69.496,64.936,67.693,66.74,67.693,68.957z"/>
	</g>
	<g>
		<path d="M98.916,77.526c0,4.759-3.858,8.617-8.617,8.617c-4.759,0-8.617-3.858-8.617-8.617V60.292h4.596v8.617h4.021v4.596
			c-2.217,0-4.021,1.804-4.021,4.021s1.804,4.021,4.021,4.021c2.217,0,4.021-1.804,4.021-4.021H98.916z"/>
	</g>
</g>
</svg>
