<svg xmlns="http://www.w3.org/2000/svg" width="640" height="380" viewBox="0 0 640 380"><style>.a{fill:#FC7E47;}.b{fill:none;stroke-width:0.3;stroke:#000002;}.c{fill:none;stroke-width:0.3;stroke:#A0A0A0;}</style><rect x="28.4" y="26.5" width="582.4" height="38.2" class="a"/><rect x="28.4" y="74.5" width="581.3" height="272.1" class="a"/><rect x="28.4" y="74.5" width="36.8" height="36.8" class="b"/><rect x="75.5" y="74.5" width="36.8" height="36.8" class="b"/><rect x="122.6" y="74.5" width="36.8" height="36.8" class="b"/><rect x="169.6" y="74.5" width="36.8" height="36.8" class="b"/><rect x="216.7" y="74.5" width="36.8" height="36.8" class="b"/><rect x="263.7" y="74.5" width="36.8" height="36.8" class="b"/><rect x="28.4" y="74.5" width="272.1" height="272.1" class="b"/><rect x="28.4" y="121.6" width="36.8" height="36.8" class="b"/><rect x="75.5" y="121.6" width="36.8" height="36.8" class="b"/><rect x="122.6" y="121.6" width="36.8" height="36.8" class="b"/><rect x="169.6" y="121.6" width="36.8" height="36.8" class="b"/><rect x="216.7" y="121.6" width="36.8" height="36.8" class="b"/><rect x="263.7" y="121.6" width="36.8" height="36.8" class="b"/><rect x="28.4" y="168.7" width="36.8" height="36.8" class="b"/><rect x="75.5" y="168.7" width="36.8" height="36.8" class="b"/><rect x="122.6" y="168.7" width="36.8" height="36.8" class="b"/><rect x="169.6" y="168.7" width="36.8" height="36.8" class="b"/><rect x="216.7" y="168.7" width="36.8" height="36.8" class="b"/><rect x="263.7" y="168.7" width="36.8" height="36.8" class="b"/><rect x="28.4" y="215.7" width="36.8" height="36.9" class="b"/><rect x="75.5" y="215.7" width="36.8" height="36.9" class="b"/><rect x="122.6" y="215.7" width="36.8" height="36.9" class="b"/><rect x="169.6" y="215.7" width="36.8" height="36.9" class="b"/><rect x="216.7" y="215.7" width="36.8" height="36.9" class="b"/><rect x="263.7" y="215.7" width="36.8" height="36.9" class="b"/><rect x="28.4" y="262.8" width="36.8" height="36.8" class="b"/><rect x="75.5" y="262.8" width="36.8" height="36.8" class="b"/><rect x="122.6" y="262.8" width="36.8" height="36.8" class="b"/><rect x="169.6" y="262.8" width="36.8" height="36.8" class="b"/><rect x="216.7" y="262.8" width="36.8" height="36.8" class="b"/><rect x="263.7" y="262.8" width="36.8" height="36.8" class="b"/><rect x="28.4" y="309.8" width="36.8" height="36.8" class="b"/><rect x="75.5" y="309.8" width="36.8" height="36.8" class="b"/><rect x="122.6" y="309.8" width="36.8" height="36.8" class="b"/><rect x="169.6" y="309.8" width="36.8" height="36.8" class="b"/><rect x="216.7" y="309.8" width="36.8" height="36.8" class="b"/><rect x="263.7" y="309.8" width="36.8" height="36.8" class="b"/><rect x="28.4" y="74.5" width="47.1" height="47.1" class="b"/><rect x="84.7" y="74.5" width="47.1" height="47.1" class="b"/><rect x="141" y="74.5" width="47.1" height="47.1" class="b"/><rect x="197.2" y="74.5" width="47.1" height="47.1" class="b"/><rect x="253.5" y="74.5" width="47.1" height="47.1" class="b"/><rect x="28.4" y="130.8" width="47.1" height="47.1" class="b"/><rect x="84.7" y="130.8" width="47.1" height="47.1" class="b"/><rect x="141" y="130.8" width="47.1" height="47.1" class="b"/><rect x="197.2" y="130.8" width="47.1" height="47.1" class="b"/><rect x="253.5" y="130.8" width="47.1" height="47.1" class="b"/><rect x="28.4" y="187.1" width="47.1" height="47.1" class="b"/><rect x="84.7" y="187.1" width="47.1" height="47.1" class="b"/><rect x="141" y="187.1" width="47.1" height="47.1" class="b"/><rect x="197.2" y="187.1" width="47.1" height="47.1" class="b"/><rect x="253.5" y="187.1" width="47.1" height="47.1" class="b"/><rect x="28.4" y="243.3" width="47.1" height="47.1" class="b"/><rect x="84.7" y="243.3" width="47.1" height="47.1" class="b"/><rect x="141" y="243.3" width="47.1" height="47.1" class="b"/><rect x="197.2" y="243.3" width="47.1" height="47.1" class="b"/><rect x="253.5" y="243.3" width="47.1" height="47.1" class="b"/><rect x="28.4" y="299.6" width="47.1" height="47.1" class="b"/><rect x="84.7" y="299.6" width="47.1" height="47.1" class="b"/><rect x="141" y="299.6" width="47.1" height="47.1" class="b"/><rect x="197.2" y="299.6" width="47.1" height="47.1" class="b"/><rect x="253.5" y="299.6" width="47.1" height="47.1" class="b"/><rect x="169.6" y="74.5" width="61" height="61" class="b"/><rect x="239.5" y="74.5" width="61" height="61" class="b"/><rect x="98.4" y="74.5" width="61" height="61" class="b"/><rect x="28.4" y="74.5" width="61" height="61" class="b"/><rect x="169.6" y="144.5" width="61" height="61" class="b"/><rect x="239.5" y="144.5" width="61" height="61" class="b"/><rect x="98.4" y="144.5" width="61" height="61" class="b"/><rect x="28.4" y="144.5" width="61" height="61" class="b"/><rect x="169.6" y="215.7" width="61" height="61" class="b"/><rect x="239.5" y="215.7" width="61" height="61" class="b"/><rect x="98.4" y="215.7" width="61" height="61" class="b"/><rect x="28.4" y="215.7" width="61" height="61" class="b"/><rect x="169.6" y="285.6" width="61" height="61" class="b"/><rect x="239.5" y="285.6" width="61" height="61" class="b"/><rect x="98.4" y="285.6" width="61" height="61" class="b"/><rect x="28.4" y="285.6" width="61" height="61" class="b"/><rect x="28.4" y="26.5" width="272.1" height="37.9" class="b"/><rect x="337.6" y="74.5" width="36.8" height="36.8" class="b"/><rect x="384.6" y="74.5" width="36.8" height="36.8" class="b"/><rect x="431.7" y="74.5" width="36.8" height="36.8" class="b"/><rect x="478.7" y="74.5" width="36.8" height="36.8" class="b"/><rect x="525.8" y="74.5" width="36.8" height="36.8" class="b"/><rect x="572.8" y="74.5" width="36.8" height="36.8" class="b"/><rect x="337.6" y="74.5" width="272.1" height="272.1" class="b"/><rect x="337.6" y="121.6" width="36.8" height="36.8" class="b"/><rect x="384.6" y="121.6" width="36.8" height="36.8" class="b"/><rect x="431.7" y="121.6" width="36.8" height="36.8" class="b"/><rect x="478.7" y="121.6" width="36.8" height="36.8" class="b"/><rect x="525.8" y="121.6" width="36.8" height="36.8" class="b"/><rect x="572.8" y="121.6" width="36.8" height="36.8" class="b"/><rect x="337.6" y="168.7" width="36.8" height="36.8" class="b"/><rect x="384.6" y="168.7" width="36.8" height="36.8" class="b"/><rect x="431.7" y="168.7" width="36.8" height="36.8" class="b"/><rect x="478.7" y="168.7" width="36.8" height="36.8" class="b"/><rect x="525.8" y="168.7" width="36.8" height="36.8" class="b"/><rect x="572.8" y="168.7" width="36.8" height="36.8" class="b"/><rect x="337.6" y="215.7" width="36.8" height="36.9" class="b"/><rect x="384.6" y="215.7" width="36.8" height="36.9" class="b"/><rect x="431.7" y="215.7" width="36.8" height="36.9" class="b"/><rect x="478.7" y="215.7" width="36.8" height="36.9" class="b"/><rect x="525.8" y="215.7" width="36.8" height="36.9" class="b"/><rect x="572.8" y="215.7" width="36.8" height="36.9" class="b"/><rect x="337.6" y="262.8" width="36.8" height="36.8" class="b"/><rect x="384.6" y="262.8" width="36.8" height="36.8" class="b"/><rect x="431.7" y="262.8" width="36.8" height="36.8" class="b"/><rect x="478.7" y="262.8" width="36.8" height="36.8" class="b"/><rect x="525.8" y="262.8" width="36.8" height="36.8" class="b"/><rect x="572.8" y="262.8" width="36.8" height="36.8" class="b"/><rect x="337.6" y="309.8" width="36.8" height="36.8" class="b"/><rect x="384.6" y="309.8" width="36.8" height="36.8" class="b"/><rect x="431.7" y="309.8" width="36.8" height="36.8" class="b"/><rect x="478.7" y="309.8" width="36.8" height="36.8" class="b"/><rect x="525.8" y="309.8" width="36.8" height="36.8" class="b"/><rect x="572.8" y="309.8" width="36.8" height="36.8" class="b"/><rect x="337.6" y="74.5" width="47.1" height="47.1" class="b"/><rect x="393.8" y="74.5" width="47.1" height="47.1" class="b"/><rect x="450.1" y="74.5" width="47.1" height="47.1" class="b"/><rect x="506.4" y="74.5" width="47.1" height="47.1" class="b"/><rect x="562.6" y="74.5" width="47.1" height="47.1" class="b"/><rect x="337.6" y="130.8" width="47.1" height="47.1" class="b"/><rect x="393.8" y="130.8" width="47.1" height="47.1" class="b"/><rect x="450.1" y="130.8" width="47.1" height="47.1" class="b"/><rect x="506.4" y="130.8" width="47.1" height="47.1" class="b"/><rect x="562.6" y="130.8" width="47.1" height="47.1" class="b"/><rect x="337.6" y="187.1" width="47.1" height="47.1" class="b"/><rect x="393.8" y="187.1" width="47.1" height="47.1" class="b"/><rect x="450.1" y="187.1" width="47.1" height="47.1" class="b"/><rect x="506.4" y="187.1" width="47.1" height="47.1" class="b"/><rect x="562.6" y="187.1" width="47.1" height="47.1" class="b"/><rect x="337.6" y="243.3" width="47.1" height="47.1" class="b"/><rect x="393.8" y="243.3" width="47.1" height="47.1" class="b"/><rect x="450.1" y="243.3" width="47.1" height="47.1" class="b"/><rect x="506.4" y="243.3" width="47.1" height="47.1" class="b"/><rect x="562.6" y="243.3" width="47.1" height="47.1" class="b"/><rect x="337.6" y="299.6" width="47.1" height="47.1" class="b"/><rect x="393.8" y="299.6" width="47.1" height="47.1" class="b"/><rect x="450.1" y="299.6" width="47.1" height="47.1" class="b"/><rect x="506.4" y="299.6" width="47.1" height="47.1" class="b"/><rect x="562.6" y="299.6" width="47.1" height="47.1" class="b"/><rect x="478.7" y="74.5" width="61" height="61" class="b"/><rect x="548.6" y="74.5" width="61" height="61" class="b"/><rect x="407.5" y="74.5" width="61" height="61" class="b"/><rect x="337.6" y="74.5" width="61" height="61" class="b"/><rect x="478.7" y="144.5" width="61" height="61" class="b"/><rect x="548.6" y="144.5" width="61" height="61" class="b"/><rect x="407.5" y="144.5" width="61" height="61" class="b"/><rect x="337.6" y="144.5" width="61" height="61" class="b"/><rect x="478.7" y="215.7" width="61" height="61" class="b"/><rect x="548.6" y="215.7" width="61" height="61" class="b"/><rect x="407.5" y="215.7" width="61" height="61" class="b"/><rect x="337.6" y="215.7" width="61" height="61" class="b"/><rect x="478.7" y="285.6" width="61" height="61" class="b"/><rect x="548.6" y="285.6" width="61" height="61" class="b"/><rect x="407.5" y="285.6" width="61" height="61" class="b"/><rect x="337.6" y="285.6" width="61" height="61" class="b"/><rect x="337.6" y="26.5" width="273.3" height="38.2" class="b"/><path d="M84.7 364v16" class="c"/><path d="M89.5 364v16" class="c"/><path d="M79.9 364v16" class="c"/><path d="M75.2 364v16" class="c"/><path d="M70.4 364v16" class="c"/><path d="M65.6 364v16" class="c"/><path d="M60.8 364v16" class="c"/><path d="M56 364v16" class="c"/><path d="M51.3 364v16" class="c"/><path d="M46.5 364v16" class="c"/><path d="M41.7 364v16" class="c"/><path d="M36.9 364v16" class="c"/><path d="M32.1 364v16" class="c"/><path d="M27.4 364v16" class="c"/><path d="M146.8 364v16" class="c"/><path d="M151.6 364v16" class="c"/><path d="M142.1 364v16" class="c"/><path d="M137.3 364v16" class="c"/><path d="M132.5 364v16" class="c"/><path d="M127.7 364v16" class="c"/><path d="M122.9 364v16" class="c"/><path d="M118.2 364v16" class="c"/><path d="M113.4 364v16" class="c"/><path d="M108.6 364v16" class="c"/><path d="M103.8 364v16" class="c"/><path d="M99 364v16" class="c"/><path d="M94.3 364v16" class="c"/><path d="M209 364v16" class="c"/><path d="M213.7 364v16" class="c"/><path d="M204.2 364v16" class="c"/><path d="M199.4 364v16" class="c"/><path d="M194.6 364v16" class="c"/><path d="M189.9 364v16" class="c"/><path d="M185.1 364v16" class="c"/><path d="M180.3 364v16" class="c"/><path d="M175.5 364v16" class="c"/><path d="M170.7 364v16" class="c"/><path d="M166 364v16" class="c"/><path d="M161.2 364v16" class="c"/><path d="M156.4 364v16" class="c"/><path d="M271.1 364v16" class="c"/><path d="M275.9 364v16" class="c"/><path d="M266.3 364v16" class="c"/><path d="M261.5 364v16" class="c"/><path d="M256.8 364v16" class="c"/><path d="M252 364v16" class="c"/><path d="M247.2 364v16" class="c"/><path d="M242.4 364v16" class="c"/><path d="M237.6 364v16" class="c"/><path d="M232.9 364v16" class="c"/><path d="M228.1 364v16" class="c"/><path d="M223.3 364v16" class="c"/><path d="M218.5 364v16" class="c"/><path d="M338 364v16" class="c"/><path d="M299.8 364v16" class="c"/><path d="M295 364v16" class="c"/><path d="M290.2 364v16" class="c"/><path d="M285.4 364v16" class="c"/><path d="M280.7 364v16" class="c"/><path d="M395.4 364v16" class="c"/><path d="M400.1 364v16" class="c"/><path d="M390.6 364v16" class="c"/><path d="M385.8 364v16" class="c"/><path d="M381 364v16" class="c"/><path d="M376.2 364v16" class="c"/><path d="M371.5 364v16" class="c"/><path d="M366.7 364v16" class="c"/><path d="M361.9 364v16" class="c"/><path d="M357.1 364v16" class="c"/><path d="M352.3 364v16" class="c"/><path d="M347.6 364v16" class="c"/><path d="M342.8 364v16" class="c"/><path d="M457.5 364v16" class="c"/><path d="M462.3 364v16" class="c"/><path d="M452.7 364v16" class="c"/><path d="M447.9 364V380" class="c"/><path d="M443.2 364V380" class="c"/><path d="M438.4 364v16" class="c"/><path d="M433.6 364v16" class="c"/><path d="M428.8 364v16" class="c"/><path d="M424 364v16" class="c"/><path d="M419.3 364v16" class="c"/><path d="M414.5 364v16" class="c"/><path d="M409.7 364v16" class="c"/><path d="M404.9 364v16" class="c"/><path d="M519.6 364v16" class="c"/><path d="M524.4 364v16" class="c"/><path d="M514.8 364v16" class="c"/><path d="M510.1 364v16" class="c"/><path d="M505.3 364v16" class="c"/><path d="M500.5 364v16" class="c"/><path d="M495.7 364v16" class="c"/><path d="M490.9 364v16" class="c"/><path d="M486.2 364v16" class="c"/><path d="M481.4 364v16" class="c"/><path d="M476.6 364v16" class="c"/><path d="M471.8 364V380" class="c"/><path d="M467.1 364V380" class="c"/><path d="M581.8 364v16" class="c"/><path d="M586.5 364v16" class="c"/><path d="M577 364v16" class="c"/><path d="M572.2 364v16" class="c"/><path d="M567.4 364v16" class="c"/><path d="M562.6 364v16" class="c"/><path d="M557.9 364v16" class="c"/><path d="M553.1 364v16" class="c"/><path d="M548.3 364v16" class="c"/><path d="M543.5 364v16" class="c"/><path d="M538.7 364v16" class="c"/><path d="M534 364v16" class="c"/><path d="M529.2 364v16" class="c"/><path d="M610.4 364v16" class="c"/><path d="M605.6 364v16" class="c"/><path d="M600.9 364v16" class="c"/><path d="M596.1 364v16" class="c"/><path d="M591.3 364v16" class="c"/><path d="M640 279.8h-16" class="c"/><path d="M640 284.5h-16" class="c"/><path d="M640 275h-16" class="c"/><path d="M640 270.2h-16" class="c"/><path d="M640 265.4h-16" class="c"/><path d="M640 260.6h-16" class="c"/><path d="M640 255.9h-16" class="c"/><path d="M640 251.1h-16" class="c"/><path d="M640 246.3h-16" class="c"/><path d="M640 241.5h-16" class="c"/><path d="M640 236.7h-16" class="c"/><path d="M640 232h-16" class="c"/><path d="M640 227.2h-16" class="c"/><path d="M640 222.4h-16" class="c"/><path d="M640 341.9h-16" class="c"/><path d="M640 346.7h-16" class="c"/><path d="M640 337.1h-16" class="c"/><path d="M640 332.3h-16" class="c"/><path d="M640 327.6h-16" class="c"/><path d="M640 322.8h-16" class="c"/><path d="M640 318h-16" class="c"/><path d="M640 313.2h-16" class="c"/><path d="M640 308.4h-16" class="c"/><path d="M640 303.7h-16" class="c"/><path d="M640 298.9h-16" class="c"/><path d="M640 294.1h-16" class="c"/><path d="M640 289.3h-16" class="c"/><path d="M640 155.5h-16" class="c"/><path d="M640 160.3h-16" class="c"/><path d="M640 150.7h-16" class="c"/><path d="M640 145.9h-16" class="c"/><path d="M640 141.2h-16" class="c"/><path d="M640 136.4h-16" class="c"/><path d="M640 131.6h-16" class="c"/><path d="M640 126.8h-16" class="c"/><path d="M640 122h-16" class="c"/><path d="M640 117.3h-16" class="c"/><path d="M640 112.5h-16" class="c"/><path d="M640 107.7h-16" class="c"/><path d="M640 102.9h-16" class="c"/><path d="M640 98.1h-16" class="c"/><path d="M640 217.6h-16" class="c"/><path d="M640 212.9h-16" class="c"/><path d="M640 208.1h-16" class="c"/><path d="M640 203.3h-16" class="c"/><path d="M640 198.5h-16" class="c"/><path d="M640 193.7h-16" class="c"/><path d="M640 189h-16" class="c"/><path d="M640 184.2h-16" class="c"/><path d="M640 179.4h-16" class="c"/><path d="M640 174.6h-16" class="c"/><path d="M640 169.8h-16" class="c"/><path d="M640 165.1h-16" class="c"/><path d="M640 31.2h-16" class="c"/><path d="M640 36h-16" class="c"/><path d="M640 26.5h-16" class="c"/><path d="M640 93.4h-16" class="c"/><path d="M640 88.6h-16" class="c"/><path d="M640 83.8h-16" class="c"/><path d="M640 79h-16" class="c"/><path d="M640 74.3h-16" class="c"/><path d="M640 64.7h-16" class="c"/><path d="M640 59.9h-16" class="c"/><path d="M640 55.1h-16" class="c"/><path d="M640 50.4h-16" class="c"/><path d="M640 45.6h-16" class="c"/><path d="M640 40.8h-16" class="c"/><path d="M640 69.5h-16" class="c"/><path d="M16 279.8H0" class="c"/><path d="M16 284.5H0" class="c"/><path d="M16 275H0" class="c"/><path d="M16 270.2H0" class="c"/><path d="M16 265.4H0" class="c"/><path d="M16 260.6H0" class="c"/><path d="M16 255.9H0" class="c"/><path d="M16 251.1H0" class="c"/><path d="M16 246.3H0" class="c"/><path d="M16 241.5H0" class="c"/><path d="M16 236.7H0" class="c"/><path d="M16 232H0" class="c"/><path d="M16 227.2H0" class="c"/><path d="M16 222.4H0" class="c"/><path d="M16 341.9H0" class="c"/><path d="M16 346.7H0" class="c"/><path d="M16 337.1H0" class="c"/><path d="M16 332.3H0" class="c"/><path d="M16 327.6H0" class="c"/><path d="M16 322.8H0" class="c"/><path d="M16 318H0" class="c"/><path d="M16 313.2H0" class="c"/><path d="M16 308.4H0" class="c"/><path d="M16 303.7H0" class="c"/><path d="M16 298.9H0" class="c"/><path d="M16 294.1H0" class="c"/><path d="M16 289.3H0" class="c"/><path d="M16 155.5H0" class="c"/><path d="M16 160.3H0" class="c"/><path d="M16 150.7H0" class="c"/><path d="M16 145.9H0" class="c"/><path d="M16 141.2H0" class="c"/><path d="M16 136.4H0" class="c"/><path d="M16 131.6H0" class="c"/><path d="M16 126.8H0" class="c"/><path d="M16 122H0" class="c"/><path d="M16 117.3H0" class="c"/><path d="M16 112.5H0" class="c"/><path d="M16 107.7H0" class="c"/><path d="M16 102.9H0" class="c"/><path d="M16 98.1H0" class="c"/><path d="M16 217.6H0" class="c"/><path d="M16 212.9H0" class="c"/><path d="M16 208.1H0" class="c"/><path d="M16 203.3H0" class="c"/><path d="M16 198.5H0" class="c"/><path d="M16 193.7H0" class="c"/><path d="M16 189H0" class="c"/><path d="M16 184.2H0" class="c"/><path d="M16 179.4H0" class="c"/><path d="M16 174.6H0" class="c"/><path d="M16 169.8H0" class="c"/><path d="M16 165.1H0" class="c"/><path d="M16 31.2H0" class="c"/><path d="M16 36H0" class="c"/><path d="M16 26.5H0" class="c"/><path d="M16 93.4H0" class="c"/><path d="M16 88.6H0" class="c"/><path d="M16 83.8H0" class="c"/><path d="M16 79H0" class="c"/><path d="M16 74.3H0" class="c"/><path d="M16 64.7H0" class="c"/><path d="M16 59.9H0" class="c"/><path d="M16 55.1H0" class="c"/><path d="M16 50.4H0" class="c"/><path d="M16 45.6H0" class="c"/><path d="M16 40.8H0" class="c"/><path d="M16 69.5H0" class="c"/></svg>
